<svg xmlns="http://www.w3.org/2000/svg" viewBox="0 0 64 64">
  <!-- Background -->
  <rect width="64" height="64" rx="12" fill="#3b82f6"/>
  
  <!-- Central node (Server) -->
  <rect x="24" y="22" width="16" height="20" rx="2" fill="#ffffff"/>
  <rect x="26" y="25" width="12" height="3" rx="1" fill="#3b82f6"/>
  <rect x="26" y="30" width="12" height="3" rx="1" fill="#3b82f6"/>
  <circle cx="32" cy="38" r="2" fill="#3b82f6"/>
  
  <!-- Left node -->
  <circle cx="12" cy="20" r="6" fill="#ffffff"/>
  <circle cx="12" cy="20" r="3" fill="#3b82f6"/>
  
  <!-- Right node -->
  <circle cx="52" cy="20" r="6" fill="#ffffff"/>
  <circle cx="52" cy="20" r="3" fill="#3b82f6"/>
  
  <!-- Bottom left node -->
  <circle cx="12" cy="48" r="6" fill="#ffffff"/>
  <circle cx="12" cy="48" r="3" fill="#3b82f6"/>
  
  <!-- Bottom right node -->
  <circle cx="52" cy="48" r="6" fill="#ffffff"/>
  <circle cx="52" cy="48" r="3" fill="#3b82f6"/>
  
  <!-- Connection lines -->
  <line x1="18" y1="20" x2="24" y2="26" stroke="#ffffff" stroke-width="2" stroke-linecap="round"/>
  <line x1="46" y1="20" x2="40" y2="26" stroke="#ffffff" stroke-width="2" stroke-linecap="round"/>
  <line x1="18" y1="48" x2="24" y2="40" stroke="#ffffff" stroke-width="2" stroke-linecap="round"/>
  <line x1="46" y1="48" x2="40" y2="40" stroke="#ffffff" stroke-width="2" stroke-linecap="round"/>
</svg>
